<svg width="23" height="23" viewBox="0 0 23 23" fill="none" xmlns="http://www.w3.org/2000/svg">
<path fill-rule="evenodd" clip-rule="evenodd" d="M2.6447 11.4966C2.64533 9.61337 3.24661 7.7794 4.36111 6.26134C5.47561 4.74328 7.04524 3.62025 8.84182 3.05551C10.6384 2.49078 12.5683 2.51378 14.3509 3.12116C16.1335 3.72855 17.6759 4.88866 18.7539 6.43285C19.832 7.97704 20.3894 9.82481 20.3451 11.7075C20.3009 13.5903 19.6573 15.4098 18.5079 16.9017C17.3586 18.3935 15.7634 19.4799 13.9542 20.0029C12.145 20.5258 10.2162 20.4582 8.44811 19.8097C9.04888 18.1993 9.63172 16.5824 10.1965 14.9591C10.7943 15.386 11.5659 15.662 12.5375 15.662C14.5525 15.662 16.6768 14.3343 17.2027 11.7007C17.866 8.39445 15.2179 5.24855 11.4961 5.24855C9.93099 5.24855 8.39188 5.87752 7.24015 6.87513C6.08634 7.87586 5.24806 9.31708 5.24806 10.9759C5.24806 11.783 5.49174 12.6817 6.07176 13.2731C6.26832 13.4666 6.53302 13.5751 6.80882 13.5753C7.08463 13.5755 7.34947 13.4674 7.54631 13.2742C7.73772 13.0829 7.84715 12.8246 7.85143 12.5541C7.85571 12.2835 7.75449 12.0219 7.56922 11.8246C6.75072 10.8041 7.82955 9.12131 8.60431 8.44964C9.40927 7.75194 10.4725 7.33124 11.4961 7.33124C14.0235 7.33124 15.5407 9.39206 15.1617 11.2925C14.8451 12.8691 13.6455 13.5793 12.5375 13.5793C11.6857 13.5793 11.2275 13.22 10.9338 12.7546C11.0942 12.2505 11.2306 11.7924 11.3285 11.4196C11.5284 10.6521 11.6492 9.72633 10.9588 9.15047C10.4454 8.72351 9.83935 8.81724 9.46863 9.00364C8.77822 9.34728 8.37209 10.1533 8.37209 10.9759C8.37209 11.4352 8.44395 12.1475 8.7022 12.8837C8.03022 14.8878 7.32269 16.8799 6.57994 18.8589C5.36848 18.0507 4.37539 16.9557 3.68888 15.6714C3.00237 14.387 2.64369 12.9529 2.6447 11.4966ZM11.4961 0.5625C5.45737 0.5625 0.562012 5.45786 0.562012 11.4966C0.562012 17.5354 5.45737 22.4307 11.4961 22.4307C17.5349 22.4307 22.4302 17.5354 22.4302 11.4966C22.4302 5.45786 17.5349 0.5625 11.4961 0.5625Z" fill="#C4B6B6"/>
</svg>
